<?xml version="1.0" encoding="utf-8"?>
<!-- Generator: Adobe Illustrator 27.1.1, SVG Export Plug-In . SVG Version: 6.00 Build 0)  -->
<svg version="1.1" id="图层_1" xmlns="http://www.w3.org/2000/svg" xmlns:xlink="http://www.w3.org/1999/xlink" x="0px" y="0px"
	 viewBox="0 0 256 256" style="enable-background:new 0 0 256 256;" xml:space="preserve">
<style type="text/css">
	.st0{fill:#3AA049;}
	.st1{fill:#3DA84D;}
	.st2{fill:#379843;}
	.st3{fill:#3DA84D;stroke:#3DA84D;stroke-width:4.25;stroke-linecap:round;stroke-linejoin:round;}
	.st4{fill:#3DA84D;stroke:#3DA84D;stroke-width:5;stroke-linecap:round;stroke-linejoin:round;}
	.st5{fill:#379843;stroke:#379843;stroke-width:3;stroke-linecap:round;stroke-linejoin:round;}
	.st6{fill:#3DA84D;stroke:#3DA84D;stroke-width:3;stroke-linecap:round;stroke-linejoin:round;}
</style>
<path class="st0" d="M0,0h128v128H0V0z"/>
<path class="st1" d="M66.1,22.5c1.2,2.3-1.7,9.2-7.1,12.1c-5.4,2.8-10,2.3-12.2-2c-2.2-4.2-0.1-8.3,5.3-11.2
	C57.5,18.6,64.9,20.2,66.1,22.5L66.1,22.5z"/>
<path class="st2" d="M57.6,88.1c2.5,0.9,5,8,2.9,13.7c-2.1,5.7-5.9,8.4-10.4,6.8c-4.5-1.6-5.7-6.1-3.6-11.8
	C48.7,90.9,55.1,87.2,57.6,88.1z"/>
<path class="st2" d="M98.4,26.2c-1.8-1-2.9-6.9-0.4-11.2c2.4-4.2,5.8-5.8,9.1-3.9c3.3,1.9,3.6,5.6,1.2,9.8
	C105.8,25.1,100.2,27.2,98.4,26.2L98.4,26.2z"/>
<path class="st2" d="M122.8,85.7c-0.6,2.5-7.3,5.8-13.3,4.4c-5.9-1.4-9-4.9-7.9-9.5s5.4-6.3,11.4-4.9
	C118.9,77.2,123.4,83.2,122.8,85.7L122.8,85.7z"/>
<path class="st2" d="M11.3,111.7c0.6-1.1,4.1-1.9,6.7-0.6c2.6,1.3,3.7,3.3,2.6,5.3c-1,2.1-3.2,2.3-5.9,1
	C12.2,116.2,10.8,112.8,11.3,111.7L11.3,111.7z"/>
<path class="st3" d="M29.1,66.9L27,70l0.1,3.8l-3.8-0.3l-3.2,2L18.5,72l-3.3-1.8l2.1-3.1l-0.1-3.8l3.8,0.3l3.2-2l1.6,3.4L29.1,66.9z
	"/>
<path class="st4" d="M100,115.9l-4,1.9l-2.1,3.9l-3.7-2.5l-4.4,0.2l0.3-4.4l-2.4-3.7l4-1.9l2.1-3.9l3.7,2.5l4.4-0.2l-0.3,4.4
	L100,115.9z"/>
<path class="st5" d="M21.6,16.9L20,17.9l-0.6,1.8l-1.7-0.8l-1.9,0.4l-0.1-1.9l-1.3-1.4l1.6-1.1l0.6-1.8l1.7,0.8l1.9-0.4l0.1,1.9
	L21.6,16.9z"/>
<path class="st6" d="M105.8,43.6l-0.4,1.3l0.4,1.3l-1.3,0.2l-0.9,1l-0.9-1l-1.3-0.3l0.4-1.3l-0.4-1.3l1.3-0.2l0.9-1l0.9,1
	L105.8,43.6z"/>
<path class="st1" d="M62.6,59.4c0.5-1.2,4-2.2,6.8-1s4,3.1,3,5.3c-0.9,2.2-3.2,2.6-5.9,1.4C63.7,63.9,62.1,60.6,62.6,59.4z"/>
<path class="st0" d="M128,0h128v128H128V0z"/>
<path class="st1" d="M194.1,22.5c1.2,2.3-1.7,9.2-7.1,12.1c-5.4,2.8-10,2.3-12.2-2c-2.2-4.2-0.1-8.3,5.3-11.2
	C185.5,18.6,192.9,20.2,194.1,22.5L194.1,22.5z"/>
<path class="st2" d="M185.6,88.1c2.5,0.9,5,8,2.9,13.7c-2.1,5.7-5.9,8.4-10.4,6.8c-4.5-1.6-5.7-6.1-3.6-11.8
	C176.7,90.9,183.1,87.2,185.6,88.1z"/>
<path class="st2" d="M226.4,26.2c-1.8-1-2.9-6.9-0.4-11.2c2.4-4.2,5.8-5.8,9.1-3.9c3.3,1.9,3.6,5.6,1.2,9.8
	C233.8,25.1,228.2,27.2,226.4,26.2L226.4,26.2z"/>
<path class="st2" d="M250.8,85.7c-0.6,2.5-7.3,5.8-13.3,4.4c-5.9-1.4-9-4.9-7.9-9.5s5.4-6.3,11.4-4.9
	C246.9,77.2,251.4,83.2,250.8,85.7L250.8,85.7z"/>
<path class="st2" d="M139.3,111.7c0.6-1.1,4.1-1.9,6.7-0.6c2.6,1.3,3.7,3.3,2.6,5.3c-1,2.1-3.2,2.3-5.9,1
	C140.2,116.2,138.8,112.8,139.3,111.7L139.3,111.7z"/>
<path class="st3" d="M157.1,66.9L155,70l0.1,3.8l-3.8-0.3l-3.2,2l-1.6-3.4l-3.3-1.8l2.1-3.1l-0.1-3.8l3.8,0.3l3.2-2l1.6,3.4
	L157.1,66.9z"/>
<path class="st4" d="M228,115.9l-4,1.9l-2.1,3.9l-3.7-2.5l-4.4,0.2l0.3-4.4l-2.4-3.7l4-1.9l2.1-3.9l3.7,2.5l4.4-0.2l-0.3,4.4
	L228,115.9z"/>
<path class="st5" d="M149.6,16.9l-1.6,1.1l-0.6,1.8l-1.7-0.8l-1.9,0.4l-0.1-1.9l-1.3-1.4l1.6-1.1l0.6-1.8l1.7,0.8l1.9-0.4l0.1,1.9
	L149.6,16.9z"/>
<path class="st6" d="M233.8,43.6l-0.4,1.3l0.4,1.3l-1.3,0.2l-0.9,1l-0.9-1l-1.3-0.3l0.4-1.3l-0.4-1.3l1.3-0.2l0.9-1l0.9,1
	L233.8,43.6z"/>
<path class="st1" d="M190.6,59.4c0.5-1.2,4-2.2,6.8-1s4,3.1,3,5.3c-0.9,2.2-3.2,2.6-5.9,1.4C191.7,63.9,190.1,60.6,190.6,59.4z"/>
<path class="st0" d="M0,128h128v128H0V128z"/>
<path class="st1" d="M66.1,150.5c1.2,2.3-1.7,9.2-7.1,12.1c-5.4,2.8-10,2.3-12.2-2c-2.2-4.2-0.1-8.3,5.3-11.2
	C57.5,146.6,64.9,148.2,66.1,150.5L66.1,150.5z"/>
<path class="st2" d="M57.6,216.1c2.5,0.9,5,8,2.9,13.7c-2.1,5.7-5.9,8.4-10.4,6.8c-4.5-1.6-5.7-6.1-3.6-11.8
	C48.7,218.9,55.1,215.2,57.6,216.1z"/>
<path class="st2" d="M98.4,154.2c-1.8-1-2.9-6.9-0.4-11.2c2.4-4.2,5.8-5.8,9.1-3.9c3.3,1.9,3.6,5.6,1.2,9.8
	C105.8,153.1,100.2,155.2,98.4,154.2L98.4,154.2z"/>
<path class="st2" d="M122.8,213.7c-0.6,2.5-7.3,5.8-13.3,4.4c-5.9-1.4-9-4.9-7.9-9.5s5.4-6.3,11.4-4.9
	C118.9,205.2,123.4,211.2,122.8,213.7L122.8,213.7z"/>
<path class="st2" d="M11.3,239.7c0.6-1.1,4.1-1.9,6.7-0.6c2.6,1.3,3.7,3.3,2.6,5.3c-1,2.1-3.2,2.3-5.9,1
	C12.2,244.2,10.8,240.8,11.3,239.7L11.3,239.7z"/>
<path class="st3" d="M29.1,194.9L27,198l0.1,3.8l-3.8-0.3l-3.2,2l-1.6-3.4l-3.3-1.8l2.1-3.1l-0.1-3.8l3.8,0.3l3.2-2l1.6,3.4
	L29.1,194.9z"/>
<path class="st4" d="M100,243.9l-4,1.9l-2.1,3.9l-3.7-2.5l-4.4,0.2l0.3-4.4l-2.4-3.7l4-1.9l2.1-3.9l3.7,2.5l4.4-0.2l-0.3,4.4
	L100,243.9z"/>
<path class="st5" d="M21.6,144.9l-1.6,1.1l-0.6,1.8l-1.7-0.8l-1.9,0.4l-0.1-1.9l-1.3-1.4l1.6-1.1l0.6-1.8l1.7,0.8l1.9-0.4l0.1,1.9
	L21.6,144.9z"/>
<path class="st6" d="M105.8,171.6l-0.4,1.3l0.4,1.3l-1.3,0.2l-0.9,1l-0.9-1l-1.3-0.3l0.4-1.3l-0.4-1.3l1.3-0.2l0.9-1l0.9,1
	L105.8,171.6z"/>
<path class="st1" d="M62.6,187.4c0.5-1.2,4-2.2,6.8-1c2.8,1.2,4,3.1,3,5.3c-0.9,2.2-3.2,2.6-5.9,1.4
	C63.7,191.9,62.1,188.6,62.6,187.4z"/>
<path class="st0" d="M128,128h128v128H128V128z"/>
<path class="st1" d="M194.1,150.5c1.2,2.3-1.7,9.2-7.1,12.1c-5.4,2.8-10,2.3-12.2-2c-2.2-4.2-0.1-8.3,5.3-11.2
	C185.5,146.6,192.9,148.2,194.1,150.5L194.1,150.5z"/>
<path class="st2" d="M185.6,216.1c2.5,0.9,5,8,2.9,13.7c-2.1,5.7-5.9,8.4-10.4,6.8c-4.5-1.6-5.7-6.1-3.6-11.8
	C176.7,218.9,183.1,215.2,185.6,216.1z"/>
<path class="st2" d="M226.4,154.2c-1.8-1-2.9-6.9-0.4-11.2c2.4-4.2,5.8-5.8,9.1-3.9c3.3,1.9,3.6,5.6,1.2,9.8
	C233.8,153.1,228.2,155.2,226.4,154.2L226.4,154.2z"/>
<path class="st2" d="M250.8,213.7c-0.6,2.5-7.3,5.8-13.3,4.4c-5.9-1.4-9-4.9-7.9-9.5s5.4-6.3,11.4-4.9
	C246.9,205.2,251.4,211.2,250.8,213.7L250.8,213.7z"/>
<path class="st2" d="M139.3,239.7c0.6-1.1,4.1-1.9,6.7-0.6c2.6,1.3,3.7,3.3,2.6,5.3c-1,2.1-3.2,2.3-5.9,1
	C140.2,244.2,138.8,240.8,139.3,239.7L139.3,239.7z"/>
<path class="st3" d="M157.1,194.9L155,198l0.1,3.8l-3.8-0.3l-3.2,2l-1.6-3.4l-3.3-1.8l2.1-3.1l-0.1-3.8l3.8,0.3l3.2-2l1.6,3.4
	L157.1,194.9z"/>
<path class="st4" d="M228,243.9l-4,1.9l-2.1,3.9l-3.6-2.5l-4.4,0.2l0.3-4.4l-2.4-3.7l4-1.9l2.1-3.9l3.7,2.5l4.4-0.2l-0.3,4.4
	L228,243.9z"/>
<path class="st5" d="M149.6,144.9l-1.6,1.1l-0.6,1.8l-1.7-0.8l-1.9,0.4l-0.1-1.9l-1.3-1.4l1.6-1.1l0.6-1.8l1.7,0.8l1.9-0.4l0.1,1.9
	L149.6,144.9z"/>
<path class="st6" d="M233.8,171.6l-0.4,1.3l0.4,1.3l-1.3,0.2l-0.9,1l-0.9-1l-1.3-0.3l0.4-1.3l-0.4-1.3l1.3-0.2l0.9-1l0.9,1
	L233.8,171.6z"/>
<path class="st1" d="M190.6,187.4c0.5-1.2,4-2.2,6.8-1c2.8,1.2,4,3.1,3,5.3c-0.9,2.2-3.2,2.6-5.9,1.4
	C191.7,191.9,190.1,188.6,190.6,187.4z"/>
</svg>
