<svg xmlns="http://www.w3.org/2000/svg" xmlns:xlink="http://www.w3.org/1999/xlink" fill="none" version="1.1" width="1320" height="760" viewBox="0 0 1320 760"><defs><filter id="master_svg0_1_6" filterUnits="objectBoundingBox" color-interpolation-filters="sRGB" x="-20" y="-16" width="1320" height="760"><feFlood flood-opacity="0" result="BackgroundImageFix"/><feColorMatrix in="SourceAlpha" type="matrix" values="0 0 0 0 0 0 0 0 0 0 0 0 0 0 0 0 0 0 127 0"/><feOffset dy="4" dx="0"/><feGaussianBlur stdDeviation="5"/><feColorMatrix type="matrix" values="0 0 0 0 0 0 0 0 0 0 0 0 0 0 0 0 0 0 0.3019607961177826 0"/><feBlend mode="normal" in2="BackgroundImageFix" result="effect1_dropShadow"/><feBlend mode="normal" in="SourceGraphic" in2="effect1_dropShadow" result="shape"/></filter></defs><g style="mix-blend-mode:passthrough"><g style="mix-blend-mode:passthrough" filter="url(#master_svg0_1_6)"><rect x="20" y="16" width="1280" height="720" rx="37" fill="#D8D8D8" fill-opacity="1"/></g><g style="mix-blend-mode:passthrough"><path d="M217.15603051757813,439.141L382.8440305175781,439.141L382.8440305175781,466L217.15603051757813,466L217.15603051757813,439.141ZM217.15603051757813,419L217.15603051757813,393L382.8440305175781,393L382.8440305175781,419L217.15603051757813,419ZM217.15603051757813,485.766L382.8440305175781,485.766L382.8440305175781,514L217.15603051757813,514L217.15603051757813,485.766ZM404.8750305175781,204.0469C344.0780305175781,216.4062,228.54703051757812,222.1875,135.82813051757813,222.9688C138.50003051757812,229.0469,141.15623051757814,238.547,141.53123051757814,245C174.5938305175781,245,210.31203051757814,244.25,246.03103051757813,242.73399999999998C243.37503051757812,251.26600000000002,240.71903051757812,259.734,237.67203051757812,268.203L141.15623051757814,268.203L141.15623051757814,291L229.31203051757814,291C225.51603051757812,300.672,221.32803051757813,310.344,216.39103051757814,320L113.40623051757812,320L113.40623051757812,343.562L203.46903051757812,343.562C179.53123051757814,383.89099999999996,146.85943051757812,419,103.53123051757812,443.75C109.60943051757812,449.516,117.96883051757813,459.875,121.76563051757813,466.391C148.00003051757812,450.656,170.40623051757814,431.547,189.79693051757812,409.828L189.79693051757812,552.031L217.15603051757813,552.031L217.15603051757813,536.812L382.8440305175781,536.812L382.8440305175781,552.031L411.3440305175781,552.031L411.3440305175781,370.203L220.1880305175781,370.203C225.89103051757812,361.453,231.21903051757812,352.703,236.15603051757813,343.562L448.5780305175781,343.562L448.5780305175781,320L247.9380305175781,320C252.50003051757812,310.344,256.67203051757815,300.672,260.4690305175781,291L426.53103051757813,291L426.53103051757813,268.203L268.8280305175781,268.203L277.5780305175781,241.203C332.29703051757815,237.781,384.7340305175781,232.469,423.1090305175781,224.875L404.8750305175781,204.0469ZM641.6090305175782,363.953C630.9690305175782,409.719,612.7340305175782,455.109,589.1720305175782,484.484C596.0160305175782,488.297,608.1720305175782,495.922,613.5000305175781,500.125C636.6720305175782,468.469,657.1880305175781,420.016,669.3590305175782,369.672L641.6090305175782,363.953ZM759.0310305175781,369.672C779.9380305175781,410.109,798.9380305175781,463.891,805.0160305175781,498.984L832.3750305175781,489.438C825.9220305175782,454.344,806.5310305175781,401.703,784.8750305175781,361.281L759.0310305175781,369.672ZM648.0780305175781,202.2969C635.1560305175781,258.375,613.5000305175781,313.219,585.0000305175781,348.688C591.8280305175781,352.89099999999996,603.2340305175782,362.422,608.1720305175782,367C621.8590305175782,349.078,634.3910305175781,326.188,645.4220305175782,301L703.5620305175781,301L703.5620305175781,516.906C703.5620305175781,521.8589999999999,701.6560305175781,523,697.0940305175782,523C691.7810305175781,523.3910000000001,675.4380305175781,523.7660000000001,657.1880305175781,523C661.3750305175781,530.9839999999999,665.9380305175781,543.531,667.4530305175781,551.8910000000001C691.0160305175781,551.8910000000001,707.7340305175782,550.75,718.0000305175781,546.188C728.2500305175781,541.25,731.6720305175782,532.8910000000001,731.6720305175782,516.906L731.6720305175782,301L803.5000305175781,301C800.4530305175781,320.469,797.0310305175781,340.688,794.3750305175781,354.797L818.7030305175781,359.375C823.6410305175781,338.76599999999996,830.4840305175782,305.594,835.4220305175782,277.828L816.0310305175781,273.26599999999996L811.0940305175782,274.406L656.0470305175782,274.406C664.0310305175781,253.422,670.8750305175781,231.2969,676.1880305175781,208.7812L648.0780305175781,202.2969ZM571.3120305175781,202.2969C550.0310305175781,260.297,514.6880305175781,317.406,477.0780305175781,354.406C482.39103051757814,360.89099999999996,490.3750305175781,375.76599999999996,493.03103051757813,382.64099999999996C506.3280305175781,368.906,519.2500305175781,352.89099999999996,531.7970305175782,335.344L531.7970305175782,550.75L559.1560305175781,550.75L559.1560305175781,292.26599999999996C573.9690305175782,266.01599999999996,587.6560305175781,238.156,598.2970305175782,210.3125L571.3120305175781,202.2969ZM996.9220305175782,443L996.9220305175782,468.844L1150.4400305175782,468.844L1150.4400305175782,443L996.9220305175782,443ZM1028.078030517578,273.219C1025.4220305175782,310.953,1020.0940305175782,361.922,1015.1560305175781,392.328L1022.7500305175781,392.328L1178.9400305175782,392.719C1171.7200305175782,476.406,1163.360030517578,510.031,1153.4700305175782,519.8589999999999C1149.6700305175782,523.625,1145.8800305175782,524.3910000000001,1139.030030517578,524C1132.2000305175782,524,1115.090030517578,524,1096.8600305175783,522.125C1101.4200305175782,529.328,1104.080030517578,540.344,1104.830030517578,548.328C1123.080030517578,549.4839999999999,1140.560030517578,549.4839999999999,1150.4400305175782,548.719C1161.840030517578,547.953,1169.060030517578,545.281,1176.280030517578,536.922C1189.9500305175782,523.25,1198.7000305175782,483.578,1207.4400305175782,380.547C1207.810030517578,376.375,1208.2000305175782,368,1208.2000305175782,368L1161.080030517578,368C1167.1600305175782,320.844,1173.2300305175781,263.547,1176.280030517578,223.7656L1156.1400305175782,221.5L1151.580030517578,223L1009.8280305175781,223L1009.8280305175781,249.23399999999998L1146.6400305175782,249.23399999999998C1143.590030517578,283.203,1138.6600305175782,329.594,1134.090030517578,368L1045.1720305175782,368C1048.5940305175782,339.85900000000004,1052.0160305175782,304.10900000000004,1054.2970305175782,275.156L1028.078030517578,273.219ZM967.6560305175781,306C963.4690305175782,358.5,953.9690305175782,402.312,939.9060305175781,437.625C928.5160305175781,426.875,916.3590305175782,416.516,904.9530305175781,407.297C912.5470305175782,378.26599999999996,920.5310305175781,342.51599999999996,927.7500305175781,306L967.6560305175781,306ZM874.5470305175782,414.984C892.0310305175781,428.797,910.6560305175781,445.672,928.1410305175781,462.766C911.7970305175782,492.656,890.8910305175781,514.562,865.8120305175781,528.188C871.8910305175781,533.8910000000001,879.5000305175781,544.1410000000001,882.9060305175781,551.031C909.5160305175781,534.6410000000001,930.7970305175782,512.672,947.8910305175781,483.203C960.0470305175782,496.422,970.3120305175781,508.891,977.5310305175781,519.8589999999999L995.7810305175781,498.312C987.7970305175782,486.609,975.2500305175781,472.25,960.8120305175781,457.828C979.8120305175781,413.828,991.2190305175782,356.219,995.3910305175781,281.312L979.0470305175782,278.64099999999996L973.7340305175782,279.406L932.6880305175781,279.406C937.6410305175781,252.328,941.8120305175781,226.0469,944.4690305175782,202.5469L917.5000305175781,200.6562C915.2190305175782,224.5312,911.0310305175781,251.547,906.0940305175782,279.406L870.7500305175781,279.406L870.7500305175781,306L901.1560305175781,306C893.1720305175782,346.703,883.2970305175782,386.25,874.5470305175782,414.984Z" fill="#3D3D3D" fill-opacity="1"/></g></g></svg>